/* XPM */
static char * closeAO_xpm[] = {
"16 32 20 1",
" 	c None",
".	c #000000",
"+	c #0A0603",
"@	c #1C1008",
"#	c #868686",
"$	c #878787",
"%	c #898989",
"&	c #F5F5F5",
"*	c #848484",
"=	c #676767",
"-	c #4A4A4A",
";	c #2D2D2D",
">	c #525252",
",	c #343434",
"'	c #1F1F1F",
")	c #1D1D1D",
"!	c #6F6F6F",
"~	c #212121",
"{	c #272727",
"]	c #232323",
"..............+@",
"#####$$$$$$$$$$$",
"%%%%%##########%",
"%%%%%%%%%%%%%%%%",
"%%%%%&&%%&&%%%%%",
"%%%%%&&&&&&%%%%%",
"%%%%%%&&&&%%*=-;",
"%%%%%%&&&&>,')))",
"%%%%*&&&&&&)))))",
"$!>,'&&))&&)))))",
"~)))))))))))))))",
"))))))))))))))))",
"))))))))))))))))",
"))))))))))))))))",
"))))))))){{{{{{{",
")))))))))]]]]]]]",
"..............+@",
"#####$$$$$$$$$$$",
"%%%%%##########%",
"%%%%%%%%%%%%%%%%",
"%%%%%&&%%&&%%%%%",
"%%%%%&&&&&&%%%%%",
"%%%%%%&&&&%%*=-;",
"%%%%%%&&&&>,')))",
"%%%%*&&&&&&)))))",
"$!>,'&&))&&)))))",
"~)))))))))))))))",
"))))))))))))))))",
"))))))))))))))))",
"))))))))))))))))",
"))))))))){{{{{{{",
")))))))))]]]]]]]"};
