/* XPM */
static char * frameITL_xpm[] = {
"7 22 29 1",
" 	c None",
".	c #1D1D1D",
"+	c #2B1A0D",
"@	c #15110F",
"#	c #504F4F",
"$	c #100C08",
"%	c #504F4E",
"&	c #8B8B8B",
"*	c #15100B",
"=	c #686868",
"-	c #898989",
";	c #3F3F3F",
">	c #828282",
",	c #0F0E0D",
"'	c #242424",
")	c #1F1F1F",
"!	c #383838",
"~	c #585858",
"{	c #797979",
"]	c #181818",
"^	c #202020",
"/	c #180D05",
"(	c #232323",
"_	c #1E1E1E",
":	c #080402",
"<	c #282828",
"[	c #000000",
"}	c #2B2B2B",
"|	c #252220",
"       ",
"       ",
"       ",
"       ",
"       ",
"       ",
"      .",
"    +@#",
"   $%&&",
"  *=---",
" .;>---",
" ,')!~{",
".]^....",
"/(_....",
":<.....",
"[}.....",
"[}.....",
"[}.....",
"[}.....",
"[}.....",
"[}.....",
"[|....."};
