/* XPM */
static char * frameITR_xpm[] = {
"7 22 29 1",
" 	c None",
".	c #1D1D1D",
"+	c #504F4F",
"@	c #15110F",
"#	c #2B1A0D",
"$	c #8B8B8B",
"%	c #504F4E",
"&	c #100C08",
"*	c #898989",
"=	c #686868",
"-	c #15100B",
";	c #828282",
">	c #3F3F3F",
",	c #797979",
"'	c #585858",
")	c #383838",
"!	c #1F1F1F",
"~	c #242424",
"{	c #0F0E0D",
"]	c #202020",
"^	c #181818",
"/	c #1E1E1E",
"(	c #232323",
"_	c #180D05",
":	c #282828",
"<	c #080402",
"[	c #2B2B2B",
"}	c #000000",
"|	c #252220",
"       ",
"       ",
"       ",
"       ",
"       ",
"       ",
".      ",
"+@#    ",
"$$%&   ",
"***=-  ",
"***;>. ",
",')!~{ ",
"....]^.",
"..../(_",
".....:<",
".....[}",
".....[}",
".....[}",
".....[}",
".....[}",
".....[}",
".....|}"};
