/* XPM */
static char * frameBR_xpm[] = {
"22 22 31 1",
" 	c None",
".	c #1B1612",
"+	c #232323",
"@	c #292929",
"#	c #222222",
"$	c #373737",
"%	c #040404",
"&	c #1A1511",
"*	c #151515",
"=	c #2C2C2C",
"-	c #212121",
";	c #363636",
">	c #0E0D0C",
",	c #2B2B2B",
"'	c #272727",
")	c #392D25",
"!	c #2D2D2D",
"~	c #252525",
"{	c #0F0D0C",
"]	c #1B1B1B",
"^	c #282828",
"/	c #0B0A09",
"(	c #141414",
"_	c #242424",
":	c #221C18",
"<	c #080808",
"[	c #161616",
"}	c #2E2E2E",
"|	c #2F2F2F",
"1	c #100E0D",
"2	c #060606",
".+@##$%               ",
".+@##$%               ",
".+@##$%               ",
".+@##$%               ",
".+@##$%               ",
".+@##$%               ",
".+@##$%               ",
".+@##$%               ",
"&+@##$%               ",
"&+@##$%               ",
"&+@##$%               ",
"&+@##$%               ",
"&+@##$%               ",
"&+@##$%               ",
"&+@##$%               ",
" *=--;%%%%%%%%%%%%%%%%",
" >,'-;;;;;;;;;;;;;;;;;",
" )*!~-----------------",
"  {]!^----------------",
"   /(,!^_#------------",
"    :<[+,}||||||||||||",
"       12%%%%%%%%%%%%%"};
