/* XPM */
static char * minimizeO_xpm[] = {
"16 32 13 1",
" 	c None",
".	c #000000",
"+	c #929292",
"@	c #939393",
"#	c #878787",
"$	c #898888",
"%	c #888888",
"&	c #888787",
"*	c #888887",
"=	c #ECEEF0",
"-	c #797979",
";	c #1D1D1D",
">	c #272727",
"................",
"++++++++++@@@@@@",
"##########$$%%%%",
"##########%$%%%%",
"##&##*%*########",
"################",
"####&###########",
"###%%%##########",
"##&##*%*########",
"####======######",
"----======------",
"................",
";;;;;;;;;;;;;;;;",
";;;;;;;;;;;;;;;;",
";;;;;;;;;;;;;;;;",
">>>>>>>>>>>>>>>>",
"................",
"++++++++++@@@@@@",
"##########$$%%%%",
"##########%$%%%%",
"##&##*%*########",
"################",
"####&###########",
"###%%%##########",
"#####*%*########",
"####======######",
"----======------",
";;;.............",
";;;;;;;;;;;;;;;;",
";;;;;;;;;;;;;;;;",
";;;;;;;;;;;;;;;;",
">>>>>>>>>>>>>>>>"};
