/* XPM */
static char * restoreI_xpm[] = {
"16 32 14 1",
" 	c None",
".	c #000000",
"+	c #929292",
"@	c #939393",
"#	c #878787",
"$	c #898888",
"%	c #888888",
"&	c #F5F5F5",
"*	c #555555",
"=	c #464646",
"-	c #383838",
";	c #1D1D1D",
">	c #151515",
",	c #272727",
"................",
"++++++++++@@@@@@",
"##########$$%%%%",
"##########%$%%%%",
"##########%%%%%%",
"#######&&&&%%%%%",
"########&&&%%%%%",
"#####&###&&%%%%%",
"#####&&###&%%%%#",
"#####&&&##%%#%%*",
"#####&&&&#%%*=-;",
">>>>>>>>>>>>;;;,",
";;;;;;;;;;;;,,,,",
";;;;;;;;;;;;,,,,",
";;;;;;;;,,,,,,,,",
"................",
"................",
"++++++++++@@@@@@",
"##########$$%%%%",
"##########%$%%%%",
"##########%%%%%%",
"#######&&&&%%%%%",
"########&&&%%%%%",
"#####&###&&%%%%%",
"#####&&###&%%%%#",
"#####&&&##%%#%%*",
"#####&&&&#%%*=-;",
">>>>>>>>>>>>;;;,",
";;;;;;;;;;;;,,,,",
";;;;;;;;;;;;,,,,",
";;;;;;;;;;,,,,,,",
",,,,,,,,........"};
