/* XPM */
static char * titleAM_xpm[] = {
"5 16 5 1",
" 	c None",
".	c #000000",
"+	c #929292",
"@	c #878787",
"#	c #1D1D1D",
".....",
"+++++",
"@@@@@",
"@@@@@",
"@@@@@",
"@@@@@",
"@@@@@",
"@@@@@",
"@@@@@",
"@@@@@",
"@@@@@",
"#####",
"#####",
"#####",
"#####",
"#####"};
