/* XPM */
static char * titleIL_xpm[] = {
"25 16 66 1",
" 	c None",
".	c #1C0F06",
"+	c #160C05",
"@	c #070402",
"#	c #000000",
"$	c #949494",
"%	c #919191",
"&	c #909090",
"*	c #929292",
"=	c #939393",
"-	c #888888",
";	c #878787",
">	c #868686",
",	c #858585",
"'	c #898989",
")	c #8A8A8A",
"!	c #838383",
"~	c #848484",
"{	c #808080",
"]	c #818181",
"^	c #252525",
"/	c #2B2B2B",
"(	c #3D3D3D",
"_	c #595858",
":	c #777777",
"<	c #807F7F",
"[	c #131313",
"}	c #141414",
"|	c #1A1A1A",
"1	c #262525",
"2	c #353535",
"3	c #4C4C4C",
"4	c #626262",
"5	c #797979",
"6	c #151514",
"7	c #191919",
"8	c #2C2C2C",
"9	c #474747",
"0	c #5E5E5E",
"a	c #6C6C6C",
"b	c #747474",
"c	c #7A7A7A",
"d	c #161616",
"e	c #1C1C1C",
"f	c #2E2E2E",
"g	c #383838",
"h	c #404040",
"i	c #454545",
"j	c #4E4E4E",
"k	c #676767",
"l	c #757575",
"m	c #7E7E7E",
"n	c #151515",
"o	c #181818",
"p	c #1F1F1F",
"q	c #393939",
"r	c #434343",
"s	c #575757",
"t	c #686868",
"u	c #717171",
"v	c #161414",
"w	c #1E1E1E",
"x	c #202020",
"y	c #1D1919",
"z	c #040404",
"A	c #120B0B",
".+@######################",
"$$$%%&&*=$$$$$$$======*=$",
"-;>>,>>>>>>;-----------')",
"!!~,>>>;>>>;-------------",
"!!~,,>;;;;>;-------------",
"{]~,!,>;;;;;-------------",
"^/(_:<!>;;;;;;;;;;;;;;;;-",
"[[}|12345~>;----;;;;;;;;;",
"[[[[[6}7890abc{,>;;;;;---",
"[[[[[[[[}de^fghijklm]!,;-",
"[[[[[[[[}}}}ndooo|pfqrstu",
"[[[[[[[[}}}}}}}}nnnnnnndo",
"[[[[[[[[}}}}}}}}nnnnnnnnv",
"[[[[[[[}}}}}}}}}nnnnnnnnv",
"wwwwwwwpppppppppxxxxxxxpy",
"#######################zA"};
