/* XPM */
static char * app_16x16_xpm[] = {
"16 16 46 1",
" 	c None",
".	c #030303",
"+	c #747474",
"@	c #646464",
"#	c #6C6C6C",
"$	c #292929",
"%	c #0F0F0F",
"&	c #474747",
"*	c #505050",
"=	c #1A1A1A",
"-	c #2B2B2B",
";	c #0E0E0E",
">	c #4B4B4B",
",	c #202020",
"'	c #393939",
")	c #131313",
"!	c #101010",
"~	c #333333",
"{	c #1F1F1F",
"]	c #212121",
"^	c #303030",
"/	c #2D2D2D",
"(	c #525252",
"_	c #121212",
":	c #444444",
"<	c #2A2A2A",
"[	c #323232",
"}	c #4A4A4A",
"|	c #939393",
"1	c #727272",
"2	c #1B1B1B",
"3	c #242424",
"4	c #4E4E4E",
"5	c #777777",
"6	c #262626",
"7	c #404040",
"8	c #565656",
"9	c #545454",
"0	c #6F6F6F",
"a	c #1C1C1C",
"b	c #585858",
"c	c #7B7B7B",
"d	c #252525",
"e	c #606060",
"f	c #636363",
"g	c #969696",
"                ",
"       ..       ",
"      .+@.      ",
"     .#$%&.     ",
"    .*=-;;>.    ",
"   .*%,')!%>.   ",
"  .*%!~{)]^/@.  ",
" .(!_=:<[}>&&|. ",
" .1)2}3/***4}5. ",
"  .@>]67899*5.  ",
"   .0=a4b88c.   ",
"    .bd4eec.    ",
"     .b:fg.     ",
"      .1c.      ",
"       ..       ",
"                "};
