/* XPM */
static char * icewm_xpm[] = {
"90 30 633 2",
"  	c None",
". 	c #3B4045",
"+ 	c #3C4146",
"@ 	c #3D4247",
"# 	c #3E4348",
"$ 	c #3F4449",
"% 	c #40454A",
"& 	c #43484D",
"* 	c #454A4F",
"= 	c #3E4248",
"- 	c #292C30",
"; 	c #101012",
"> 	c #020202",
", 	c #000000",
"' 	c #41464B",
") 	c #42474C",
"! 	c #464B50",
"~ 	c #44494E",
"{ 	c #464C51",
"] 	c #484F56",
"^ 	c #474D57",
"/ 	c #3C4247",
"( 	c #3B4146",
"_ 	c #3C4246",
": 	c #474C51",
"< 	c #4A5055",
"[ 	c #4F565E",
"} 	c #4B5158",
"| 	c #2F3339",
"1 	c #2F3439",
"2 	c #303439",
"3 	c #303539",
"4 	c #2F353A",
"5 	c #30353A",
"6 	c #31353A",
"7 	c #30363A",
"8 	c #30363B",
"9 	c #31363B",
"0 	c #32363B",
"a 	c #31373C",
"b 	c #32373C",
"c 	c #32373D",
"d 	c #33373D",
"e 	c #33383D",
"f 	c #33393E",
"g 	c #34383D",
"h 	c #34393E",
"i 	c #35393E",
"j 	c #353A3F",
"k 	c #343A3F",
"l 	c #343A3E",
"m 	c #353A3E",
"n 	c #353A40",
"o 	c #363A3F",
"p 	c #353B40",
"q 	c #363B40",
"r 	c #373C41",
"s 	c #363B41",
"t 	c #373B41",
"u 	c #373D41",
"v 	c #383D42",
"w 	c #373D42",
"x 	c #383D41",
"y 	c #393E42",
"z 	c #383E43",
"A 	c #393E43",
"B 	c #393E44",
"C 	c #3A3E44",
"D 	c #3A3F43",
"E 	c #3A3F44",
"F 	c #3A3F45",
"G 	c #3A4044",
"H 	c #3C4045",
"I 	c #3C4046",
"J 	c #444547",
"K 	c #2F3539",
"L 	c #2F343A",
"M 	c #31353B",
"N 	c #31363C",
"O 	c #32373B",
"P 	c #32383D",
"Q 	c #32383C",
"R 	c #33373C",
"S 	c #34393D",
"T 	c #34393F",
"U 	c #363B3F",
"V 	c #373B40",
"W 	c #363C41",
"X 	c #383C41",
"Y 	c #383E42",
"Z 	c #393D42",
"` 	c #393F43",
" .	c #3A3E43",
"..	c #3B3F45",
"+.	c #3B4044",
"@.	c #3A4045",
"#.	c #3B4145",
"$.	c #41464A",
"%.	c #30343A",
"&.	c #31373B",
"*.	c #33383C",
"=.	c #33393D",
"-.	c #353B3F",
";.	c #41474B",
">.	c #484E52",
",.	c #949094",
"'.	c #D69295",
").	c #EB5759",
"!.	c #E8494C",
"~.	c #BA585B",
"{.	c #524347",
"].	c #3B3F44",
"^.	c #3C4145",
"/.	c #404347",
"(.	c #424447",
"_.	c #32363C",
":.	c #33383E",
"<.	c #34383E",
"[.	c #5C5A5D",
"}.	c #847672",
"|.	c #A2877F",
"1.	c #B79489",
"2.	c #BE978B",
"3.	c #B49083",
"4.	c #A2857C",
"5.	c #B4A8A6",
"6.	c #EBAEAE",
"7.	c #EF4F52",
"8.	c #EC3E40",
"9.	c #E83638",
"0.	c #E43133",
"a.	c #A5575A",
"b.	c #404045",
"c.	c #393D43",
"d.	c #3B4046",
"e.	c #484E54",
"f.	c #40454B",
"g.	c #3C4044",
"h.	c #3F4144",
"i.	c #404144",
"j.	c #85888B",
"k.	c #D7A493",
"l.	c #EC9D80",
"m.	c #EE9473",
"n.	c #EE8C69",
"o.	c #EE8763",
"p.	c #ED845D",
"q.	c #EC855F",
"r.	c #EFAE97",
"s.	c #F27B7B",
"t.	c #ED4042",
"u.	c #E83739",
"v.	c #E52E31",
"w.	c #E12629",
"x.	c #C65457",
"y.	c #4E484C",
"z.	c #383C42",
"A.	c #383D43",
"B.	c #393F44",
"C.	c #454A51",
"D.	c #3A3D41",
"E.	c #3D3E41",
"F.	c #81796A",
"G.	c #D0BFA6",
"H.	c #EFE7DF",
"I.	c #F3B49D",
"J.	c #F0916F",
"K.	c #F08D6A",
"L.	c #EF8864",
"M.	c #EE845D",
"N.	c #ED7F56",
"O.	c #ED7A51",
"P.	c #EE8D6A",
"Q.	c #F17C76",
"R.	c #E9393B",
"S.	c #E53032",
"T.	c #E1272A",
"U.	c #DE2225",
"V.	c #BB6365",
"W.	c #48484D",
"X.	c #373C42",
"Y.	c #393D41",
"Z.	c #3A3B3E",
"`.	c #30353B",
" +	c #31363A",
".+	c #42464A",
"++	c #A1927D",
"@+	c #F3BE73",
"#+	c #F9BF6E",
"$+	c #FBDBAE",
"%+	c #FADACD",
"&+	c #F09372",
"*+	c #EF8A65",
"=+	c #EE865F",
"-+	c #ED8159",
";+	c #ED7C53",
">+	c #EC774D",
",+	c #EC754B",
"'+	c #F19A88",
")+	c #EA5859",
"!+	c #E32E30",
"~+	c #DF2728",
"{+	c #DA575A",
"]+	c #856F73",
"^+	c #36383C",
"/+	c #988770",
"(+	c #F7BB67",
"_+	c #F9B85C",
":+	c #F9B658",
"<+	c #FAC06F",
"[+	c #FCE8D3",
"}+	c #F4B29B",
"|+	c #EF8863",
"1+	c #EE825C",
"2+	c #ED7E56",
"3+	c #EC794F",
"4+	c #EB7449",
"5+	c #EB7042",
"6+	c #EA6F42",
"7+	c #EF8E71",
"8+	c #F19E92",
"9+	c #F1AA9D",
"0+	c #D2AFA6",
"a+	c #676365",
"b+	c #35383C",
"c+	c #6B6760",
"d+	c #F1B869",
"e+	c #F9B75A",
"f+	c #F9B657",
"g+	c #F9B454",
"h+	c #F9B353",
"i+	c #FBD5A0",
"j+	c #FADED2",
"k+	c #F3B19A",
"l+	c #F0AE96",
"m+	c #EFB39C",
"n+	c #EFA185",
"o+	c #ED845F",
"p+	c #EA7043",
"q+	c #EA6839",
"r+	c #E96333",
"s+	c #E86130",
"t+	c #E75E2C",
"u+	c #E65E2E",
"v+	c #AF7664",
"w+	c #434549",
"x+	c #D4AE78",
"y+	c #F9B555",
"z+	c #F9B452",
"A+	c #F9B24F",
"B+	c #F9B14F",
"C+	c #F9CD8F",
"D+	c #EDE5DA",
"E+	c #C2BEBC",
"F+	c #9E9C9A",
"G+	c #979494",
"H+	c #A29C9A",
"I+	c #CBB9B2",
"J+	c #EBA991",
"K+	c #E8612F",
"L+	c #E75B28",
"M+	c #E75722",
"N+	c #E6521C",
"O+	c #DF673B",
"P+	c #695A57",
"Q+	c #3B4248",
"R+	c #3C4349",
"S+	c #262A2F",
"T+	c #262B30",
"U+	c #272C31",
"V+	c #282D32",
"W+	c #292E33",
"X+	c #2A2F34",
"Y+	c #2B3035",
"Z+	c #2C3136",
"`+	c #2D3237",
" @	c #2E3338",
".@	c #817869",
"+@	c #F4B864",
"@@	c #F9B250",
"#@	c #F9B14D",
"$@	c #F9C174",
"%@	c #E7D4B7",
"&@	c #9A9B99",
"*@	c #5F6468",
"=@	c #4C5156",
"-@	c #4B5055",
";@	c #65686B",
">@	c #AFA6A2",
",@	c #EFAD94",
"'@	c #E86434",
")@	c #E75824",
"!@	c #E6541E",
"~@	c #E6501A",
"{@	c #E5511B",
"]@	c #A57162",
"^@	c #333840",
"/@	c #343A41",
"(@	c #32373E",
"_@	c #41454A",
":@	c #7C7B7E",
"<@	c #DCBB94",
"[@	c #F8B659",
"}@	c #F9B24E",
"|@	c #F9B14B",
"1@	c #F9AF48",
"2@	c #F2D5AB",
"3@	c #A9A69E",
"4@	c #54585D",
"5@	c #4D5257",
"6@	c #5C5F62",
"7@	c #D3BEB6",
"8@	c #EE8E6C",
"9@	c #E75621",
"0@	c #E6511B",
"a@	c #E64F18",
"b@	c #D06E4B",
"c@	c #47474A",
"d@	c #B19891",
"e@	c #E8AD99",
"f@	c #F1A68A",
"g@	c #F5B07F",
"h@	c #F9B251",
"i@	c #F9AE45",
"j@	c #F8AE45",
"k@	c #F8C37A",
"l@	c #D9CAB0",
"m@	c #5F6263",
"n@	c #4E5358",
"o@	c #9F9C9D",
"p@	c #EFBCA8",
"q@	c #E65019",
"r@	c #E15B2A",
"s@	c #35393F",
"t@	c #282E32",
"u@	c #9B7569",
"v@	c #EB8A66",
"w@	c #EC774E",
"x@	c #EB774D",
"y@	c #F5A968",
"z@	c #F8AC41",
"A@	c #F8AE47",
"B@	c #F8CA8A",
"C@	c #C9BEA9",
"D@	c #5B5E5F",
"E@	c #8F9195",
"F@	c #EFDAD2",
"G@	c #EE8B68",
"H@	c #E86131",
"I@	c #E85F2C",
"J@	c #E7602E",
"K@	c #E26032",
"L@	c #D97E5E",
"M@	c #EC7C54",
"N@	c #EC764B",
"O@	c #EB6E41",
"P@	c #EA6939",
"Q@	c #EF905F",
"R@	c #F8AC43",
"S@	c #F8AE46",
"T@	c #F9CA8B",
"U@	c #CFC3AC",
"V@	c #5D6060",
"W@	c #989A9E",
"X@	c #F2E6E6",
"Y@	c #F8D1C9",
"Z@	c #F6BCAF",
"`@	c #F5B7A8",
" #	c #F3B9A9",
".#	c #D4A495",
"+#	c #272B30",
"@#	c #E27953",
"##	c #EA6D3F",
"$#	c #E96636",
"%#	c #E86230",
"&#	c #F2A479",
"*#	c #F8AB40",
"=#	c #F8A93B",
"-#	c #F8C072",
";#	c #E8D2B1",
">#	c #8A8A87",
",#	c #565B60",
"'#	c #C2BCBF",
")#	c #F4CBCC",
"!#	c #F09596",
"~#	c #EF898A",
"{#	c #EE8788",
"]#	c #EE9E9F",
"^#	c #C6A5A8",
"/#	c #A35F48",
"(#	c #EA6C3E",
"_#	c #E96435",
":#	c #E85D2B",
"<#	c #EC825A",
"[#	c #F8BE7F",
"}#	c #F8A632",
"|#	c #F7A531",
"1#	c #F7B04D",
"2#	c #F6D4A4",
"3#	c #CABDA7",
"4#	c #6A6C6D",
"5#	c #5A5F64",
"6#	c #919094",
"7#	c #E9D3D3",
"8#	c #F2A7A8",
"9#	c #ED797A",
"0#	c #EC7576",
"a#	c #EB6F70",
"b#	c #E96E70",
"c#	c #D87275",
"d#	c #3D4347",
"e#	c #3E3C3F",
"f#	c #825343",
"g#	c #AF5E43",
"h#	c #B57B66",
"i#	c #E1C1A2",
"j#	c #F7A32C",
"k#	c #F7A129",
"l#	c #F7A32E",
"m#	c #F8BC69",
"n#	c #F2D9B3",
"o#	c #C4C1B8",
"p#	c #8D8F92",
"q#	c #777C81",
"r#	c #757B81",
"s#	c #83868B",
"t#	c #A8A3A5",
"u#	c #DDCCCC",
"v#	c #F3BABB",
"w#	c #EC7B7C",
"x#	c #EB7071",
"y#	c #EA6B6C",
"z#	c #E96466",
"A#	c #E85E5F",
"B#	c #C4686B",
"C#	c #282C33",
"D#	c #53514B",
"E#	c #E1A248",
"F#	c #F7A22A",
"G#	c #F7A127",
"H#	c #F79F24",
"I#	c #F79E22",
"J#	c #F7A532",
"K#	c #FBD6A3",
"L#	c #F9F1EE",
"M#	c #EBDEDD",
"N#	c #DECECF",
"O#	c #D9C8C9",
"P#	c #E3CCCB",
"Q#	c #EFD1D0",
"R#	c #F2B5B5",
"S#	c #EB7678",
"T#	c #E96668",
"U#	c #E96667",
"V#	c #E86061",
"W#	c #E7595B",
"X#	c #E45456",
"Y#	c #905D61",
"Z#	c #3F4549",
"`#	c #3D4348",
" $	c #363A40",
".$	c #252831",
"+$	c #3F4243",
"@$	c #BC883E",
"#$	c #F7A026",
"$$	c #F79F22",
"%$	c #F79D1F",
"&$	c #F79B1C",
"*$	c #F7A431",
"=$	c #FCE7D2",
"-$	c #FAD4D4",
";$	c #F5B2B3",
">$	c #F4B4B4",
",$	c #F4B6B7",
"'$	c #ED8B8C",
")$	c #EC7D7E",
"!$	c #EC7979",
"~$	c #E96465",
"{$	c #E75B5D",
"]$	c #E65456",
"^$	c #E44E50",
"/$	c #D25659",
"($	c #5F4E53",
"_$	c #42474B",
":$	c #41454B",
"<$	c #404449",
"[$	c #3F4349",
"}$	c #3E4347",
"|$	c #3C4147",
"1$	c #262932",
"2$	c #2E3438",
"3$	c #5E5444",
"4$	c #EB9B29",
"5$	c #F79C1D",
"6$	c #F79B1A",
"7$	c #F79A18",
"8$	c #F9B961",
"9$	c #FADFDB",
"0$	c #F29999",
"a$	c #EE7C7D",
"b$	c #EC7374",
"c$	c #E96567",
"d$	c #EB7273",
"e$	c #EC7A79",
"f$	c #E86464",
"g$	c #E7605F",
"h$	c #E45657",
"i$	c #E3494B",
"j$	c #DF484A",
"k$	c #935256",
"l$	c #414146",
"m$	c #43484C",
"n$	c #40444A",
"o$	c #3D4246",
"p$	c #191B22",
"q$	c #3D4146",
"r$	c #88693D",
"s$	c #F1991D",
"t$	c #F79A17",
"u$	c #F6A93D",
"v$	c #FBDFC4",
"w$	c #F4B0B1",
"x$	c #ED7778",
"y$	c #EA686A",
"z$	c #E86465",
"A$	c #E86264",
"B$	c #EA726A",
"C$	c #F1955B",
"D$	c #F5A34E",
"E$	c #F4A45C",
"F$	c #E68A7C",
"G$	c #BB6062",
"H$	c #56494D",
"I$	c #444A4E",
"J$	c #43494D",
"K$	c #42484C",
"L$	c #41464C",
"M$	c #272B31",
"N$	c #181A1F",
"O$	c #0D0E11",
"P$	c #444647",
"Q$	c #826439",
"R$	c #D9922E",
"S$	c #C6AD89",
"T$	c #E2D1D2",
"U$	c #ED8A8B",
"V$	c #EC7375",
"W$	c #EB6D6E",
"X$	c #EA6668",
"Y$	c #E7595A",
"Z$	c #E96A68",
"`$	c #F5AA6D",
" %	c #F8AF46",
".%	c #F8AD42",
"+%	c #A29D93",
"@%	c #454B4F",
"#%	c #444A4F",
"$%	c #43494E",
"%%	c #42484D",
"&%	c #3E4449",
"*%	c #262A30",
"=%	c #17191D",
"-%	c #0D0E10",
";%	c #0A0B0C",
">%	c #45484A",
",%	c #575249",
"'%	c #60605D",
")%	c #A48487",
"!%	c #EA7071",
"~%	c #E96263",
"{%	c #E65557",
"]%	c #E45052",
"^%	c #E98884",
"/%	c #F8BD6D",
"(%	c #F8AA3C",
"_%	c #F5AE4A",
":%	c #C9A86A",
"<%	c #474C50",
"[%	c #454B50",
"}%	c #43474C",
"|%	c #42464B",
"1%	c #40464A",
"2%	c #3F454A",
"3%	c #17191E",
"4%	c #0C0D0F",
"5%	c #79595D",
"6%	c #BF6466",
"7%	c #DB6162",
"8%	c #E45759",
"9%	c #E34A4B",
"0%	c #DC484A",
"a%	c #C27C7B",
"b%	c #EBBA75",
"c%	c #F8AB3E",
"d%	c #F8A939",
"e%	c #F2A63A",
"f%	c #C1994F",
"g%	c #474B50",
"h%	c #45494F",
"i%	c #282D33",
"j%	c #484D52",
"k%	c #494E53",
"l%	c #4A4F54",
"m%	c #4C5055",
"n%	c #625358",
"o%	c #765458",
"p%	c #865155",
"q%	c #924F52",
"r%	c #9A4D50",
"s%	c #8A484D",
"t%	c #674F52",
"u%	c #997849",
"v%	c #EFA236",
"w%	c #F7A52F",
"x%	c #DA932E",
"y%	c #746147",
"z%	c #454A50",
"A%	c #2A303D",
"B%	c #1E2228",
"C%	c #15171A",
"D%	c #4D5056",
"E%	c #505055",
"F%	c #525056",
"G%	c #4F4F55",
"H%	c #4C5155",
"I%	c #5E5A51",
"J%	c #B2833F",
"K%	c #F09F29",
"L%	c #E2952A",
"M%	c #8E6E41",
"N%	c #4E4F50",
"O%	c #1B1F28",
"P%	c #0D0E12",
". . . . + + + + + + + + @ @ @ @ @ @ @ # # # $ $ $ $ $ $ % % % % % % % % % % % % % % % % % % % % & * * $ $ $ $ $ % % % $ $ $ $ $ $ $ $ $ $ # # @ = = - ; > , , , , , , , , , , , , , ",
"# # # # $ $ $ $ $ $ $ $ % % % % % % % ' ' ' ' ' ' ' ' ' ) ) ) & & & & & & & & & & & & & & & & ! ! ! ! ! ! ! ! ! ~ * * * * * * * * * * * ~ ~ ~ ~ ~ ~ ~ ~ ~ ~ { ] ^ , , , , , , , , , ",
"/ / / ( ( ( . + + + + + + _ _ _ _ _ @ @ @ @ = = # # # # # # $ $ % ! ! ! ! ! ! ! ! ! ! ! ! ! ! ! ! ! ! ! ! ! ! ! ! ! ! ! ! ! ! ! ! * * * * * * * * * * ! ! : < [ } % , , , , , , , , ",
"| | | 1 2 2 3 4 5 5 5 6 7 8 9 9 9 0 a a b b c b d e e e f g f h h i j k l m j j n o p q q q r s t r r u v w w x v y z y z A A B B C D D E F G E . . H H H I I ! ! : # J J J J J J J ",
"| | | K L 1 2 K 5 M 7 M 9 9 9 N 9 N O b b P Q e R d e e g g S h h l j T j j j j U n U q V q W W r r r u X X x v Y Y y Z A A B A `  .E E E ..+.@.. . H #.I I . + ' ) ! $.J J J J J J ",
"| | | 1 4 %.L 4 5 5 5 M 7 M 9 0 &.O a O b b Q *.d e e =.e f S h h l j k T j j -.F ;.& ' . >.,.'.).!.~.{.X x v x v Y Z A y A A  .` E C E E ].+.@.. . . H + ^.( + $ $ ' ~ ! ' /.(.J J ",
"| | | 5 1 4 %.%.5 5 8 5 8 9 &.&.a N _.b b b b c *.e e e e :.h <.h h l m m q [.}.|.1.2.3.4.5.6.7.8.9.0.a.b.w v v v v Z A c.y A A  .C B E E E ..@.@.. . ( ^.d.+ + # # $ $ * e.f.g.h.i.",
"| | | 1 2 L %.5 5 5 5 7 9 8 9 &.&.9 b b b b P c P e e =.f g h h h h l T < j.k.l.m.n.o.p.q.r.s.t.u.v.w.x.y.z.v v Z A.A z Y A  .A C B.E E E +.G . ..+.H . I + I + @ @ # # # e.C.F D.E.",
"| | 1 1 L 5 5 4 5 5 5 6 7 9 9 N 0 _._.b b b R R P e e =.=.:.h S h l ].F.G.H.I.J.K.L.M.N.O.P.Q.R.S.T.U.V.W.X.x z.v v Z y c.y A A C E ` E E F E ..@.. . H H #.I ( + @ @ @ # $ ) # Y.Z.",
"| | 1 2 K L 2 3 5 5 `.8 M  +9 9 9 0 b b b b d Q P P e e f g S h h .+++@+#+$+%+&+*+=+-+;+>+,+'+)+!+~+{+]+#.v w x Y v A.c.c.c.A A E E E E E @.].. . . . + H + + + + + @ @ @ # ' ' A ^+",
"| | 1 1 3 3 5 5 5 5  +`.M 9 9 9 N 9 _.b b c e d d *.e e =.=.h S h /+(+_+:+<+[+}+|+1+2+3+4+5+6+7+8+9+0+a+X X v x Y Y A.y Y A A A A ` B.E E E E ..G @.H H H + ^.+ + + + @ @ @ # ) + b+",
"| | 1 1 1 L 4 5 5 5 7 7 7 9 9 N &.0 a b b c R P e e <.:.f :.h h c+d+e+f+g+h+i+j+k+l+m+n+o+p+q+r+s+t+u+v+w+x z.v v Z Y Z z A A A ` E B.E E E . E . . . #.#.^.+ I . + + @ @ @ @ ' # q ",
"| | 1 1 L 3 5 5 5 `.5 M M M 9 O 9 &.b b b R R Q R e e :.g <.h ^.x+:+y+z+A+B+C+D+E+F+G+H+I+J+p+K+L+M+N+O+P+x X v v Y y A A.A `  .A D C E E +.+.. +.. . . . + ( ^.r v Q+R+( . + $ % r ",
"S+T+U+V+V+V+V+V+V+V+W+X+X+X+Y+Z+Z+Z+`+`+`+`+ @ @ @1 1 1 1 1 1 .@+@g+@@#@#@$@%@&@*@=@-@-@;@>@,@'@)@!@~@{@]@p m <.e b 9 5 K K 5 5 1 1 1  @ @`+`+`+`+Z+`+ @`+`+Z+`+ @ @^@/@(@b h r $ v ",
"T+U+V+V+V+V+V+V+V+W+X+X+X+Y+Z+Z+Z+Z+`+`+`+`+ @1 1 1 1 1 1 _@:@<@[@}@|@1@e+2@3@4@5@5@5@5@5@6@7@8@9@0@a@a@b@r V j h e P 9  +K 9 5 5 5 1 1  @ @`+`+`+`+Z+Z+Z+Z+Y+X+X+W+W+V+V+V+W+Z+q j ",
"U+U+V+V+V+V+V+V+W+W+X+X+Y+Z+Z+Z+Z+`+`+`+ @ @1 1 1 1 1 1 c@d@e@f@g@h@i@j@k@l@m@5@5@5@5@5@5@n@o@p@L+q@a@a@r@Y x V o s@S e b 9 b 9 9 5 5 2 1 1  @`+`+`+`+Z+Z+Z+Y+Y+X+X+X+W+t@t@V+V+b b ",
"U+U+U+V+V+V+V+V+W+W+X+X+Y+Z+Z+Z+`+`+`+ @ @1 1 1 1 1 5 b u@v@2+w@x@y@z@A@B@C@D@5@5@5@5@5@5@n@E@F@G@H@I@J@K@A c.v W q j h e b e b b 9 5 5 5 1 1  @`+`+`+`+Z+Z+Z+Z+Y+Y+Y+X+X+X+W+X+b 9 ",
"T+U+U+V+V+V+V+V+W+W+X+Y+Z+Z+Z+`+`+`+`+ @1 1 5 5 9 9 9 e L@M@N@O@P@Q@R@S@T@U@V@5@5@5@5@5@5@n@W@X@Y@Z@`@ #.#. E ` v w q n m g <.e e b 9 9 5 5 1 1  @ @`+`+`+`+`+Z+Z+Z+Z+Y+Y+X+X+Z+e 9 ",
"+#U+V+V+V+V+V+W+W+X+Y+Z+Z+Z+`+`+`+`+ @1 1 5 5 9 b b b <.@#4+##$#%#&#*#=#-#;#>#5@5@5@5@5@5@,#'#)#!#~#{#]#^#+ . @.D A.z.r q j h h h e e b 9 9 5 5 1 1  @ @ @`+`+`+`+`+Z+Z+Z+Y+Y+ @e 5 ",
"U+U+V+V+V+V+V+W+W+X+Y+Z+Z+Z+`+`+`+ @1 1 5 5 9 b e e e h /#(#_#:#<#[#}#|#1#2#3#4#n@5@5@5@5#6#7#8#9#0#a#b#c#d#@ + ..` A v r W j j l h h e e b 9 9 5 5 5 1 1  @ @ @`+`+`+`+`+`+Z+9 b 1 ",
"U+U+V+V+V+V+V+W+X+X+Y+Z+Z+Z+`+`+ @ @1 5 5 9 b e e h h l e#f#g#h#i#=#j#k#l#m#n#o#p#q#r#s#t#u#v#w#x#y#z#A#B#$ # @ + . ].A c.u r q j j j h h e e b b 9 5 5 5 5 1 1  @ @ @`+`+`+ @e 9 C#",
"V+V+V+V+V+V+W+W+X+Y+Z+Z+Z+`+`+ @ @1 5 5 9 b e h h h h j q q r D#E#F#G#H#I#J#K#L#M#N#O#P#Q#R#S#T#U#V#W#X#Y#% Z## `#_ + ..C A v v r q  $j j h h e e e b 9 9 9 9 5 5 1 1 1  @ @9 e 1 .$",
"V+V+V+V+V+V+W+W+X+Y+Z+Z+`+`+`+ @1 5 5 9 b e h h h j j q r v v +$@$#$$$%$&$*$=$-$;$>$,$8#'$)$!$~${$]$^$/$($_$:$<$[$}$@ |$. E E A A v r q q j j h h h <.e e b b 9 9 9 5 5 5 9 h b 1 1$",
"V+V+V+V+V+V+W+X+X+Z+Z+Z+`+`+`+2$5 5 9 b e e h h j j j r v v A E 3$4$5$6$7$8$9$0$a$b$y#c$d$e$f$g$h$i$j$k$l$m$) ' % n$# d#o$d.. E E A A v r r q j j h h h h e e e b b b 9 9 h h 5 C#p$",
"V+V+V+V+V+W+W+X+Y+Z+Z+`+`+`+ @1 5 5 9 b e h h j j q q v A A . + q$r$s$t$u$v$w$a$x$a#y$z$A$B$C$D$E$F$G$H$: I$J$K$L$' % $ # / @ + . E E A y v r q q j j j j h h h e e e b h h 9 M$N$O$",
"V+V+V+V+V+W+W+X+Z+Z+Z+`+`+ @1 5 5 9 b e <.h j q r v v A E . + @ # P$Q$R$S$T$U$V$W$X$V#Y$Z$`$j@ %.%@++%: : @%#%$%%%) ' % $ &%$ # @ + . . E A Y v v r r q q j j h h h j q j b *%=%-%;%",
"V+V+V+V+V+W+X+Y+Z+Z+`+`+`+ @1 5 9 b e <.h j q r v v v E . + @ $ % % >%,%'%)%!%y$~%{${%]%^%/%S@.%(%_%:%: : <%[%* ~ & }%|%1%2%% $ $ # @ + + . E A A A v v r r q j q q r j b C#3%4%;%;%",
"V+V+V+V+W+W+X+Y+Z+Z+`+`+ @1 5 6 b e <.h l j r v v A A . + @ $ % ' ) & ~ * 5%6%7%8%]%9%0%a%b%c%d%}#e%f%: : g%g%! @%h%$%& ) $.) ) ' $ $ # @ + . . E E A A A v v r v q j b i%N$-%;%;%;%",
"1 1 5 5 9 9 9 b e e h l j q q r v E E E . . @ # $ $ $ ' ) & ~ * : j%k%k%l%m%n%o%p%q%r%s%t%u%v%w%F#x%y%: g%! * #%#%z%* ~ & ) ! * ~ & ) ) % $ # # # @ + . . E E v q j A%B%C%-%;%;%;%;%",
" @ @ @1 5 9 9 9 b b e h j j q r v A E E . + @ # $ $ $ ) & ~ * ! : j%k%l%-@=@5@n@D%E%F%G%H%I%J%K%L%M%N%: ! ! z%#%#%g%! @%* ~ ~ & ) % % $ # @ + . . A A v r q j h b 9 O%P%;%;%;%;%;%;%"};
