/* XPM */
static char * taskbuttonbg_xpm[] = {
"1 30 24 1",
" 	c None",
".	c #56575A",
"+	c #535456",
"@	c #505153",
"#	c #4D4E51",
"$	c #4A4B4E",
"%	c #47484B",
"&	c #454648",
"*	c #424346",
"=	c #414245",
"-	c #3F4043",
";	c #3D3E41",
">	c #323335",
",	c #2B2B2D",
"'	c #232425",
")	c #222223",
"!	c #202122",
"~	c #1F2021",
"{	c #1F1F21",
"]	c #1D1E1F",
"^	c #1D1D1F",
"/	c #1E1E1F",
"(	c #1F2023",
"_	c #151515",
".",
".",
".",
".",
"+",
"@",
"#",
"$",
"%",
"&",
"*",
"=",
"-",
";",
">",
",",
"'",
")",
")",
"!",
"!",
"~",
"{",
"{",
"]",
"^",
"^",
"/",
"(",
"_"};
