/* XPM */
static char * taskbuttonactive_xpm[] = {
"1 30 19 1",
" 	c None",
".	c #282828",
"+	c #1E1E1E",
"@	c #1D1D1D",
"#	c #1C1C1C",
"$	c #1B1B1B",
"%	c #191A1B",
"&	c #191919",
"*	c #181818",
"=	c #161618",
"-	c #151515",
";	c #131313",
">	c #121212",
",	c #111111",
"'	c #101112",
")	c #101012",
"!	c #0F1011",
"~	c #101010",
"{	c #222324",
".",
"+",
"@",
"#",
"$",
"$",
"%",
"%",
"&",
"&",
"*",
"*",
"*",
"=",
"-",
";",
">",
",",
",",
",",
"'",
"'",
")",
")",
"!",
"~",
"~",
"~",
">",
"{"};
